<svg width="16" height="16" viewBox="0 0 16 16" fill="none" xmlns="http://www.w3.org/2000/svg">
<rect width="16" height="16" rx="8" fill="white"/>
<path d="M7.99552 9.35465C7.62108 9.35463 7.34716 9.69073 7.25354 9.98602C6.92713 9.9912 6.27624 10.1638 6.28609 10.8174C6.29839 11.6338 7.54156 11.7415 7.99547 11.7415C8.4695 11.7415 9.64119 11.6571 9.6412 10.8174C9.6412 10.1623 9.07554 10.0815 8.69177 9.98602C8.63114 9.59661 8.30797 9.35468 7.99552 9.35465Z" fill="#329696"/>
<path fill-rule="evenodd" clip-rule="evenodd" d="M7.93055 5.51031C6.99143 4.00596 5.01176 3.54848 3.50885 4.4885C2.00594 5.42853 1.5489 7.4101 2.48802 8.91446L5.13783 13.1591C5.15988 13.2041 5.18301 13.2486 5.2072 13.2926L5.20721 11.5056L5.20252 11.4971C4.72172 10.6198 4.02588 9.15265 4.75313 8.54662C5.02607 8.29318 5.39957 8.18299 5.76319 8.32678C5.64774 7.96687 5.76319 7.28933 6.36922 6.97092C7.09647 6.58883 7.78331 6.96786 8.01996 7.39382C8.26814 6.97092 8.91788 6.6073 9.60142 6.93052C10.2479 7.23619 10.4095 7.94058 10.2883 8.32678C10.2883 8.32678 10.8566 8.06179 11.333 8.57576C11.9852 9.27944 11.4156 10.2839 11.1084 10.9345C11.0159 11.1304 10.9257 11.3213 10.8566 11.5056V13.2926C10.8605 13.2853 10.9655 13.1383 10.9693 13.131L13.5608 8.92223C14.4999 7.41787 14.0429 5.4363 12.54 4.49627C11.0371 3.55625 9.0574 4.01373 8.11828 5.51809L8.02684 5.66456L7.93055 5.51031Z" fill="#64CDCD"/>
<path d="M5.94147 9.58802C5.81366 9.78984 5.51372 9.82911 5.27154 9.67573C5.02936 9.52235 4.93665 9.23441 5.06447 9.03259C5.19228 8.83078 5.49222 8.79151 5.7344 8.94489C5.97658 9.09827 6.06929 9.38621 5.94147 9.58802Z" fill="#329696"/>
<path d="M11.0333 9.04039C10.9055 8.83858 10.6055 8.79931 10.3633 8.95269C10.1212 9.10607 10.0285 9.39401 10.1563 9.59582C10.2841 9.79764 10.584 9.83691 10.8262 9.68353C11.0684 9.53015 11.1611 9.24221 11.0333 9.04039Z" fill="#329696"/>
<path d="M7.18527 8.70643C6.9093 8.779 6.61499 8.56936 6.52792 8.23819C6.44084 7.90703 6.59397 7.57974 6.86994 7.50718C7.14591 7.43462 7.44022 7.64426 7.52729 7.97542C7.61437 8.30659 7.46124 8.63387 7.18527 8.70643Z" fill="#329696"/>
<path d="M8.97049 8.70643C9.24646 8.779 9.54077 8.56936 9.62785 8.23819C9.71492 7.90703 9.56179 7.57974 9.28582 7.50718C9.00985 7.43462 8.71554 7.64426 8.62847 7.97542C8.54139 8.30659 8.69452 8.63387 8.97049 8.70643Z" fill="#329696"/>
</svg>
