<svg width="936" height="199" viewBox="0 0 936 199" fill="none" xmlns="http://www.w3.org/2000/svg">
<path d="M781.061 122.537C779.811 122.537 778.598 122.48 777.424 122.366C775.188 122.177 773.18 121.589 771.399 120.604C769.619 119.618 768.103 118.348 766.853 116.794C765.602 115.24 764.636 113.458 763.954 111.449C763.31 109.44 762.988 107.317 762.988 105.081C762.988 102.844 763.424 100.703 764.295 98.6556C765.167 96.5707 766.379 94.7512 767.932 93.197C769.486 91.6049 771.305 90.335 773.388 89.3873C775.51 88.4397 777.822 87.9658 780.322 87.9658H797.429C798.49 87.9658 799.494 88.1554 800.441 88.5344C801.426 88.9135 802.298 89.4631 803.056 90.1834C803.813 90.8657 804.42 91.7376 804.874 92.799C805.329 93.8224 805.556 94.9976 805.556 96.3243C805.556 97.5373 805.348 98.6745 804.931 99.7359C804.514 100.797 803.946 101.726 803.226 102.522C802.544 103.28 801.748 103.887 800.839 104.342C799.93 104.797 798.983 105.024 797.997 105.024H781.175C780.758 105.024 780.436 105.1 780.209 105.251C779.981 105.365 779.811 105.517 779.697 105.706C779.583 105.858 779.508 106.028 779.47 106.218C779.47 106.37 779.47 106.502 779.47 106.616C779.47 107.147 779.716 107.488 780.209 107.64C780.739 107.753 781.288 107.81 781.857 107.81H790.552C793.053 107.81 795.364 108.284 797.486 109.232C799.646 110.141 801.502 111.392 803.056 112.984C804.609 114.539 805.821 116.377 806.693 118.5C807.564 120.585 808 122.802 808 125.153C808 127.503 807.583 129.739 806.75 131.862C805.916 133.985 804.742 135.861 803.226 137.491C801.748 139.121 799.968 140.429 797.884 141.415C795.8 142.362 793.508 142.855 791.007 142.893H771.911C770.66 142.893 769.448 142.76 768.273 142.495C767.137 142.23 766.114 141.775 765.204 141.13C764.333 140.448 763.632 139.538 763.102 138.401C762.609 137.264 762.363 135.804 762.363 134.023C762.363 131.483 763.045 129.474 764.409 127.996C765.811 126.479 767.648 125.721 769.922 125.721H787.881C788.108 125.721 788.43 125.721 788.847 125.721C789.264 125.683 789.681 125.626 790.098 125.551C790.514 125.437 790.874 125.266 791.177 125.039C791.481 124.773 791.632 124.413 791.632 123.958C791.632 123.693 791.424 123.39 791.007 123.049C790.59 122.708 789.605 122.537 788.052 122.537H781.061Z" fill="#64CDCD"/>
<path d="M686.091 97.9142C686.091 96.5117 686.338 95.2228 686.83 94.0477C687.361 92.8347 688.081 91.7923 688.99 90.9204C689.899 90.0106 690.96 89.3093 692.173 88.8166C693.423 88.2859 694.749 88.0205 696.151 88.0205C697.477 88.0205 698.727 88.2859 699.902 88.8166C701.114 89.3093 702.156 90.0106 703.028 90.9204C703.937 91.7923 704.657 92.8347 705.187 94.0477C705.718 95.2228 706.002 96.5117 706.04 97.9142L706.381 120.715C706.381 121.398 706.589 121.928 707.006 122.307C707.461 122.649 707.953 122.819 708.484 122.819C708.976 122.819 709.431 122.667 709.848 122.364C710.265 122.023 710.511 121.53 710.587 120.886V114.574C710.587 113.172 710.852 111.864 711.382 110.651C711.913 109.4 712.633 108.32 713.542 107.41C714.451 106.5 715.512 105.799 716.725 105.306C717.975 104.775 719.301 104.51 720.703 104.51C722.067 104.51 723.355 104.775 724.568 105.306C725.818 105.799 726.898 106.5 727.807 107.41C728.754 108.32 729.493 109.4 730.024 110.651C730.592 111.864 730.876 113.172 730.876 114.574V121C730.914 121.53 731.123 121.985 731.501 122.364C731.918 122.705 732.392 122.876 732.922 122.876C733.15 122.876 733.415 122.838 733.718 122.762C734.021 122.649 734.286 122.516 734.514 122.364C734.779 122.175 735.006 121.966 735.196 121.739C735.385 121.473 735.48 121.208 735.48 120.943V97.9142C735.48 96.5117 735.726 95.2228 736.219 94.0477C736.749 92.8347 737.469 91.7923 738.378 90.9204C739.288 90.0106 740.349 89.3093 741.561 88.8166C742.811 88.2859 744.137 88.0205 745.539 88.0205C746.903 88.0205 748.173 88.2859 749.347 88.8166C750.56 89.3093 751.602 90.0106 752.473 90.9204C753.382 91.7923 754.102 92.8347 754.633 94.0477C755.163 95.2228 755.428 96.5117 755.428 97.9142V121.454C755.428 124.487 754.803 127.33 753.553 129.984C752.302 132.637 750.616 134.968 748.495 136.977C746.411 138.986 743.986 140.579 741.22 141.754C738.454 142.891 735.556 143.459 732.524 143.459C730.251 143.459 728.091 143.137 726.045 142.493C723.999 141.848 722.105 140.958 720.362 139.82C718.543 140.958 716.611 141.848 714.565 142.493C712.519 143.137 710.378 143.459 708.143 143.459C705.15 143.459 702.308 142.891 699.618 141.754C696.966 140.579 694.635 138.986 692.627 136.977C690.619 134.968 689.028 132.637 687.853 129.984C686.679 127.33 686.091 124.487 686.091 121.454V97.9142Z" fill="#64CDCD"/>
<path d="M648.468 143.459C644.679 143.459 641.099 142.739 637.727 141.299C634.355 139.82 631.38 137.83 628.804 135.328C626.265 132.827 624.238 129.908 622.723 126.572C621.245 123.198 620.506 119.616 620.506 115.825C620.506 112.035 621.245 108.452 622.723 105.079C624.238 101.705 626.265 98.7482 628.804 96.2084C631.38 93.6686 634.355 91.6785 637.727 90.2381C641.099 88.7597 644.679 88.0205 648.468 88.0205C652.295 88.0205 655.895 88.7597 659.267 90.2381C662.677 91.6785 665.651 93.6686 668.19 96.2084C670.728 98.7482 672.736 101.705 674.214 105.079C675.692 108.452 676.43 112.035 676.43 115.825C676.43 118.668 676.014 121.398 675.18 124.013C674.347 126.591 673.172 128.979 671.656 131.178C670.141 133.376 668.341 135.347 666.257 137.091C664.211 138.797 661.938 140.18 659.437 141.242C658.414 140.294 657.619 139.157 657.05 137.83C656.52 136.504 656.255 135.044 656.255 133.452L655.459 131.462C655.459 130.514 655.591 129.206 655.857 127.539C656.122 125.871 656.482 124.07 656.937 122.137C657.429 120.204 657.997 118.251 658.642 116.28C659.324 114.271 660.062 112.471 660.858 110.878C661.692 109.248 662.544 107.922 663.416 106.898C664.325 105.875 665.272 105.363 666.257 105.363C667.697 105.363 669.023 105.647 670.236 106.216C671.486 106.747 672.566 107.486 673.475 108.433C674.384 109.343 675.104 110.442 675.635 111.731C676.165 112.982 676.43 114.347 676.43 115.825V133.452C676.43 134.892 676.146 136.238 675.578 137.489C675.047 138.702 674.309 139.782 673.361 140.73C672.452 141.678 671.353 142.417 670.065 142.948C668.815 143.478 667.489 143.744 666.087 143.744C664.761 143.744 663.529 143.516 662.393 143.061C661.256 142.644 660.271 142.038 659.437 141.242C657.732 141.962 655.951 142.512 654.095 142.891C652.276 143.27 650.401 143.459 648.468 143.459ZM648.468 123.217C649.491 123.217 650.457 123.028 651.367 122.649C652.314 122.269 653.148 121.758 653.868 121.113C654.587 120.431 655.156 119.654 655.573 118.782C656.027 117.872 656.255 116.887 656.255 115.825C656.255 114.764 656.027 113.797 655.573 112.925C655.156 112.016 654.587 111.239 653.868 110.594C653.186 109.912 652.371 109.381 651.424 109.002C650.476 108.623 649.491 108.433 648.468 108.433C647.483 108.433 646.517 108.623 645.57 109.002C644.66 109.381 643.846 109.912 643.126 110.594C642.406 111.239 641.819 112.016 641.364 112.925C640.947 113.797 640.739 114.764 640.739 115.825C640.739 116.887 640.947 117.872 641.364 118.782C641.819 119.654 642.406 120.431 643.126 121.113C643.884 121.758 644.717 122.269 645.627 122.649C646.536 123.028 647.483 123.217 648.468 123.217Z" fill="#64CDCD"/>
<path d="M560.491 98.7109V97.858V97.8011C560.491 93.783 561.173 89.9923 562.537 86.4291C563.939 82.8658 565.871 79.7574 568.334 77.1039C570.797 74.4126 573.714 72.2898 577.086 70.7356C580.496 69.1814 584.228 68.4043 588.282 68.4043C592.299 68.4043 596.087 69.1814 599.649 70.7356C603.248 72.2898 606.374 74.4126 609.027 77.1039C611.679 79.7574 613.782 82.8848 615.335 86.4859C616.889 90.0492 617.665 93.8399 617.665 97.858C617.665 101.914 616.889 105.724 615.335 109.287C613.782 112.85 611.679 115.959 609.027 118.612C606.374 121.266 603.248 123.369 599.649 124.924C596.087 126.44 592.299 127.198 588.282 127.198C585.744 127.198 583.338 126.762 581.064 125.89L580.78 132.941C580.78 134.419 580.534 135.803 580.041 137.092C579.587 138.343 578.924 139.442 578.052 140.39C577.181 141.337 576.139 142.095 574.926 142.664C573.714 143.195 572.369 143.46 570.891 143.46C569.451 143.46 568.087 143.195 566.799 142.664C565.549 142.095 564.45 141.337 563.503 140.39C562.556 139.442 561.817 138.343 561.286 137.092C560.756 135.803 560.491 134.419 560.491 132.941V98.7109ZM589.078 106.558C590.253 106.558 591.37 106.311 592.431 105.818C593.53 105.326 594.496 104.662 595.33 103.828C596.163 102.994 596.826 102.028 597.319 100.928C597.849 99.7913 598.115 98.5972 598.115 97.3463C598.115 96.0953 597.849 94.9771 597.319 93.9915C596.826 93.0059 596.163 92.172 595.33 91.4896C594.496 90.7694 593.53 90.2387 592.431 89.8975C591.37 89.5185 590.253 89.3289 589.078 89.3289C587.903 89.3289 586.786 89.5564 585.725 90.0113C584.702 90.4661 583.792 91.0916 582.997 91.8877C582.239 92.6837 581.633 93.6124 581.178 94.6738C580.723 95.6973 580.496 96.7966 580.496 97.9717C580.496 99.1468 580.723 100.265 581.178 101.326C581.633 102.35 582.239 103.26 582.997 104.056C583.792 104.814 584.702 105.42 585.725 105.875C586.786 106.33 587.903 106.558 589.078 106.558Z" fill="#64CDCD"/>
<path d="M531.051 116.28V98.0279C531.051 96.6633 531.316 95.3745 531.846 94.1614C532.415 92.9484 533.172 91.887 534.12 90.9773C535.067 90.0675 536.166 89.3473 537.416 88.8166C538.666 88.2859 539.992 88.0205 541.394 88.0205C542.758 88.0205 544.028 88.2859 545.202 88.8166C546.415 89.3473 547.457 90.0675 548.328 90.9773C549.237 91.887 549.938 92.9484 550.431 94.1614C550.961 95.3745 551.226 96.6633 551.226 98.0279V115.882V116.28V116.337C551.226 119.142 550.829 121.834 550.033 124.411C549.275 126.989 548.195 129.377 546.793 131.576C545.392 133.736 543.706 135.67 541.735 137.375C539.803 139.043 537.643 140.389 535.256 141.412V150.794C535.256 152.197 534.972 153.505 534.404 154.718C533.873 155.969 533.134 157.049 532.187 157.959C531.24 158.869 530.122 159.57 528.834 160.063C527.584 160.593 526.258 160.859 524.856 160.859C523.454 160.859 522.147 160.593 520.934 160.063C519.76 159.57 518.718 158.869 517.808 157.959C516.937 157.049 516.236 155.969 515.706 154.718C515.213 153.505 514.967 152.197 514.967 150.794V141.583C512.39 140.597 510.022 139.271 507.862 137.603C505.703 135.897 503.827 133.945 502.236 131.746C500.683 129.548 499.451 127.14 498.542 124.525C497.67 121.909 497.235 119.161 497.235 116.28V98.0279C497.235 96.6633 497.5 95.3745 498.03 94.1614C498.561 92.9484 499.281 91.887 500.19 90.9773C501.099 90.0675 502.16 89.3473 503.373 88.8166C504.585 88.2859 505.873 88.0205 507.237 88.0205C508.601 88.0205 509.89 88.2859 511.102 88.8166C512.352 89.3473 513.432 90.0675 514.342 90.9773C515.289 91.887 516.028 92.9484 516.558 94.1614C517.126 95.3745 517.411 96.6633 517.411 98.0279V116.451V116.906C517.448 117.891 517.676 118.782 518.093 119.578C518.509 120.374 519.059 121.056 519.741 121.625C520.423 122.156 521.199 122.573 522.071 122.876C522.98 123.179 523.946 123.331 524.969 123.331C526.978 123.331 528.474 122.743 529.459 121.568C530.444 120.355 530.975 118.725 531.051 116.678V116.337V116.28Z" fill="#64CDCD"/>
<path d="M430.74 115.257C430.74 111.504 431.479 107.979 432.956 104.681C434.434 101.383 436.442 98.5018 438.981 96.0378C441.519 93.536 444.456 91.5838 447.79 90.1812C451.162 88.7407 454.705 88.0205 458.418 88.0205C462.169 88.0205 465.787 88.7407 469.273 90.1812C472.797 91.5838 475.903 93.517 478.594 95.981C481.284 98.4449 483.443 101.326 485.073 104.624C486.702 107.922 487.516 111.447 487.516 115.2V115.655V133.054C487.516 134.457 487.251 135.764 486.721 136.977C486.228 138.152 485.527 139.195 484.618 140.105C483.746 140.977 482.705 141.659 481.492 142.152C480.318 142.644 479.048 142.891 477.684 142.891C476.282 142.891 474.956 142.644 473.706 142.152C472.456 141.659 471.357 140.977 470.41 140.105C469.5 139.195 468.761 138.152 468.193 136.977C467.663 135.764 467.397 134.457 467.397 133.054V115.655V115.598C467.397 114.574 467.113 113.627 466.545 112.755C466.014 111.845 465.313 111.068 464.442 110.424C463.571 109.741 462.604 109.211 461.544 108.831C460.483 108.452 459.441 108.263 458.418 108.263C457.433 108.263 456.485 108.433 455.576 108.775C454.705 109.116 453.928 109.59 453.246 110.196C452.602 110.803 452.071 111.504 451.654 112.3C451.238 113.096 451.01 113.968 450.972 114.916V115.257V133.054C450.972 134.457 450.707 135.764 450.177 136.977C449.684 138.152 448.983 139.195 448.074 140.105C447.203 140.977 446.161 141.659 444.948 142.152C443.774 142.644 442.504 142.891 441.14 142.891C439.738 142.891 438.412 142.644 437.162 142.152C435.912 141.659 434.813 140.977 433.866 140.105C432.918 139.195 432.161 138.152 431.592 136.977C431.024 135.764 430.74 134.457 430.74 133.054V115.257Z" fill="#64CDCD"/>
<path d="M401.527 75.0578C401.527 73.6173 401.792 72.2716 402.323 71.0207C402.891 69.7319 403.649 68.6326 404.596 67.7228C405.581 66.7751 406.699 66.0359 407.949 65.5053C409.237 64.9366 410.601 64.6523 412.041 64.6523C413.443 64.6523 414.769 64.9366 416.02 65.5053C417.308 66.0359 418.425 66.7751 419.373 67.7228C420.358 68.6326 421.135 69.7319 421.703 71.0207C422.271 72.2716 422.555 73.6173 422.555 75.0578C422.555 76.4983 422.271 77.8629 421.703 79.1518C421.135 80.4027 420.358 81.502 419.373 82.4497C418.425 83.3973 417.308 84.1555 416.02 84.7241C414.769 85.2548 413.443 85.5201 412.041 85.5201C410.601 85.5201 409.237 85.2548 407.949 84.7241C406.699 84.1555 405.581 83.3973 404.596 82.4497C403.649 81.502 402.891 80.4027 402.323 79.1518C401.792 77.8629 401.527 76.4983 401.527 75.0578ZM401.811 97.9726C401.811 96.6079 402.076 95.338 402.607 94.1629C403.175 92.9499 403.933 91.8885 404.88 90.9787C405.827 90.069 406.926 89.3487 408.177 88.818C409.427 88.2873 410.772 88.022 412.212 88.022C413.576 88.022 414.864 88.2873 416.076 88.818C417.289 89.3487 418.331 90.069 419.202 90.9787C420.074 91.8885 420.756 92.9499 421.248 94.1629C421.779 95.338 422.044 96.6079 422.044 97.9726V133.738C422.044 135.102 421.779 136.391 421.248 137.604C420.718 138.817 419.998 139.879 419.089 140.788C418.179 141.698 417.118 142.418 415.906 142.949C414.693 143.48 413.405 143.745 412.041 143.745C410.677 143.745 409.37 143.48 408.12 142.949C406.869 142.418 405.771 141.698 404.823 140.788C403.914 139.879 403.175 138.817 402.607 137.604C402.076 136.391 401.811 135.102 401.811 133.738V97.9726Z" fill="#64CDCD"/>
<path d="M354.923 88.4212H343.783C342.381 88.4212 341.074 88.1748 339.862 87.682C338.649 87.1513 337.588 86.4311 336.679 85.5213C335.77 84.6116 335.05 83.5502 334.519 82.3372C334.027 81.0862 333.781 79.7595 333.781 78.3569C333.781 76.9923 334.027 75.7034 334.519 74.4904C335.05 73.2774 335.77 72.216 336.679 71.3062C337.588 70.3965 338.649 69.6762 339.862 69.1455C341.074 68.6148 342.381 68.3495 343.783 68.3495H385.044C386.408 68.3495 387.697 68.6148 388.909 69.1455C390.159 69.6762 391.239 70.4154 392.149 71.3631C393.058 72.2729 393.778 73.3532 394.308 74.6041C394.839 75.8172 395.104 77.1249 395.104 78.5275C395.104 79.9301 394.839 81.2379 394.308 82.4509C393.778 83.626 393.058 84.6684 392.149 85.5782C391.239 86.4501 390.159 87.1513 388.909 87.682C387.697 88.1748 386.408 88.4212 385.044 88.4212H374.701V133.91C374.701 135.312 374.416 136.62 373.848 137.833C373.318 139.046 372.579 140.088 371.632 140.96C370.722 141.832 369.642 142.514 368.392 143.007C367.18 143.538 365.891 143.803 364.527 143.803C363.163 143.803 361.894 143.538 360.72 143.007C359.545 142.514 358.522 141.832 357.651 140.96C356.817 140.088 356.154 139.046 355.661 137.833C355.169 136.62 354.923 135.312 354.923 133.91V88.4212Z" fill="#64CDCD"/>
<path d="M215.074 109.797C209.636 109.797 205.659 114.679 204.299 118.969C199.56 119.045 190.108 121.553 190.251 131.048C190.43 142.907 208.482 144.472 215.073 144.472C221.956 144.472 238.97 143.247 238.97 131.048C238.97 121.53 230.756 120.356 225.184 118.969C224.303 113.312 219.611 109.797 215.074 109.797Z" fill="#329696"/>
<path fill-rule="evenodd" clip-rule="evenodd" d="M214.117 53.9415C200.48 32.0865 171.733 25.4404 149.91 39.0969C128.086 52.7533 121.45 81.5411 135.087 103.396L173.564 165.061C173.884 165.715 174.22 166.361 174.571 167L174.572 141.04L174.503 140.915C167.522 128.17 157.418 106.856 167.978 98.0521C171.941 94.3702 177.365 92.7695 182.645 94.8584C180.968 89.6297 182.645 79.7866 191.445 75.1608C202.005 69.6098 211.979 75.1164 215.415 81.3045C219.019 75.1608 228.454 69.8782 238.379 74.5738C247.766 79.0146 250.113 89.2477 248.353 94.8584C248.353 94.8584 256.605 91.0086 263.523 98.4755C272.993 108.698 264.723 123.291 260.262 132.743C258.919 135.588 257.61 138.362 256.605 141.04V167C256.662 166.894 258.187 164.759 258.243 164.652L295.873 103.509C309.51 81.654 302.873 52.8662 281.05 39.2098C259.226 25.5533 230.48 32.1995 216.843 54.0544L215.515 56.1823L214.117 53.9415Z" fill="#64CDCD"/>
<path d="M185.247 113.19C183.391 116.122 179.036 116.693 175.519 114.465C172.002 112.236 170.656 108.053 172.512 105.121C174.368 102.189 178.724 101.619 182.24 103.847C185.757 106.075 187.103 110.258 185.247 113.19Z" fill="#329696"/>
<path d="M259.168 105.218C257.312 102.286 252.957 101.715 249.44 103.944C245.924 106.172 244.577 110.355 246.433 113.287C248.289 116.219 252.645 116.789 256.161 114.561C259.678 112.333 261.024 108.15 259.168 105.218Z" fill="#329696"/>
<path d="M203.286 100.361C199.279 101.416 195.005 98.3701 193.741 93.559C192.476 88.7479 194.7 83.9932 198.707 82.939C202.715 81.8849 206.988 84.9304 208.253 89.7415C209.517 94.5526 207.293 99.3073 203.286 100.361Z" fill="#329696"/>
<path d="M229.213 100.361C233.221 101.416 237.494 98.3701 238.759 93.559C240.023 88.7479 237.8 83.9932 233.792 82.939C229.785 81.8849 225.511 84.9304 224.247 89.7415C222.983 94.5526 225.206 99.3073 229.213 100.361Z" fill="#329696"/>
</svg>
